<?xml version="1.0" standalone="no"?>
<!DOCTYPE svg PUBLIC "-//W3C//DTD SVG 1.1//EN" "http://www.w3.org/Graphics/SVG/1.1/DTD/svg11.dtd" >
<svg xmlns="http://www.w3.org/2000/svg">
<metadata>Generated by IcoMoon</metadata>
<defs>
<font id="icomoon" horiz-adv-x="1024">
<font-face units-per-em="1024" ascent="960" descent="-64" />
<missing-glyph horiz-adv-x="1024" />
<glyph unicode="&#x20;" horiz-adv-x="512" d="" />
<glyph unicode="&#xe900;" glyph-name="docHome-tele" d="M56.188 661.563c0.366 0.497 0.746 1.053 1.112 1.521l-27.004 22.045c-1.419-1.785-138.006-182.857 180.721-513.887 186.997-194.267 328.923-235.242 415.378-235.242 0.322 0 0.658 0 0.98 0 57.49 0.205 95.715 19.076 110.987 35.152l-12.493 12.215-669.681 678.195zM816.742 118.448c-116.546 117.95-142.789 144.516-149.402 150.981l0.102 0.117c-18.359 18.578-48.391 18.593-66.984-0.088l-54.082-54.96 216.298-219.355c28.116 28.438 43.14 43.652 51.024 52.677l0.132-0.19 3.087 2.472c16.545 16.852 18.198 43.257 4.93 62.098l-5.105 6.246zM80.589 686.577v0l196.037-198.802c32.344 32.695 47.045 47.543 53.701 55.501l0.483-0.497c16.545 16.867 18.227 43.184 5.047 61.952l-5.091 6.29c-109.349 110.694-142.512 144.252-154.185 154.829l0.556 0.571c-18.315 18.739-48.333 18.739-66.955 0l-54.126-54.974 24.532-24.869zM517.968 557.085c17.159 0.936 45.553-10.284 72.207-37.347 26.58-26.975 37.625-56.174 36.776-73.143l51.917-2.706c1.799 36.030-17.598 78.336-51.917 113.181-34.45 34.977-76.493 54.916-111.792 52.721l2.809-52.707zM770.926 439.077l51.917-2.706c3.35 66.911-35.43 149.957-101.215 216.737-65.975 67.028-148.261 106.16-213.987 102.78l2.809-52.721c50.586 2.896 119.369-31.481 174.416-87.391 54.872-55.676 88.664-125.045 86.060-176.699zM853.884 787.207c-110.621 112.333-247.091 178.381-356.206 172.412l2.794-52.707c93.257 4.871 217.659-56.496 316.65-157.008 98.714-100.22 159.393-226.128 154.624-320.805l51.917-2.706c5.588 110.577-59.451 248.832-169.779 360.814z" />
<glyph unicode="&#xe901;" glyph-name="docHome-skill" d="M0 715.13c0 135.235 109.613 244.87 244.87 244.87 135.235 0 244.87-109.613 244.87-244.87v-244.87h-244.87c-135.235 0-244.87 109.613-244.87 244.87zM0 180.87c0 135.235 109.613 244.87 244.87 244.87h244.87v-244.87c0-135.235-109.613-244.87-244.87-244.87-135.235 0-244.87 109.613-244.87 244.87zM534.261 715.13c0 135.235 109.613 244.87 244.87 244.87 135.235 0 244.87-109.613 244.87-244.87 0-135.235-109.613-244.87-244.87-244.87h-244.87v244.87zM534.261 425.739h244.87c135.235 0 244.87-109.613 244.87-244.87 0-135.235-109.613-244.87-244.87-244.87-135.235 0-244.87 109.613-244.87 244.87v244.87z" />
<glyph unicode="&#xe902;" glyph-name="docHome-skill2" d="M187.542 391.062v-180.974l317.188-172.83 317.188 172.83v180.974l-317.188-172.83-317.188 172.83zM504.73 851.64l-498.439-271.461 498.439-271.461 407.813 222.145v-312.632h90.625v361.948l-498.439 271.461z" />
<glyph unicode="&#xe903;" glyph-name="docHome-return" d="M823.782 200.81l5.24 4.434c5.52 4.666 8.863 7.493-13.296 98.78-38.398 158.016-190.748 260.016-361.324 275.25v116.49l-265.899-203.857 265.9-203.859v116.49c110.522 8.262 207.676-1.25 272.696-70.2 32.104-34.043 70.793-101.493 80.057-121.37 1.31-2.794 3.733-7.977 9.572-9.935l7.054-2.223z" />
<glyph unicode="&#xe904;" glyph-name="docHome-consult" d="M274.087 702.439c-49.527 0-89.128-40.42-89.128-89.947s39.601-89.026 89.128-89.026c49.527 0 89.128 40.42 89.128 89.844s-39.601 89.128-89.128 89.128zM408.546 390.543l-74.29 74.188-149.297-149.297v-89.844h305.246c-8.903 23.536-13.712 48.606-13.712 74.7 0 127.603 115.017 231.876 259.709 238.323l-89.435 89.333-238.22-237.402zM523.87 166.341h-384.243c-8.186 0-14.838 6.549-14.838 14.94v566.49c0 8.186 6.651 14.838 14.838 14.838v-0.819h744.951c8.186 0 14.735-6.651 14.735-14.838v-245.997c22.205-12.484 42.159-27.731 59.35-45.229v291.227c0 40.42-32.95 74.188-74.188 74.188h-744.951c-40.42 0-74.29-32.95-74.29-74.188v-565.671c0-40.522 32.95-74.495 74.29-74.495h449.324c-15.656 11.665-28.038 21.182-34.178 26.708-11.358 10.028-21.694 21.080-30.801 32.847zM904.941 432.293c-13.2 13.405-28.55 25.070-45.638 34.792-32.95 18.521-72.142 29.368-114.301 29.368-3.684 0-7.368-0.102-11.051-0.205-111.231-5.116-199.745-85.24-199.745-183.372 0-20.056 3.684-39.396 10.54-57.406 6.14-16.373 14.94-31.619 25.787-45.638 7.061-9.005 15.042-17.498 23.74-25.275 4.707-4.195 14.224-11.563 26.298-20.568 44.717-33.359 124.329-89.026 124.329-89.026v54.439c116.45 0 210.796 82.17 210.796 183.577 0 45.536-19.033 87.286-50.755 119.315zM851.628 338.969c2.661 0 5.219-0.409 7.675-1.023 11.768-3.275 20.363-13.712 20.363-26.094 0-12.484-8.596-22.922-20.363-26.196-2.456-0.716-5.014-1.023-7.675-1.023-15.554 0-28.14 12.177-28.14 27.219 0 14.94 12.586 27.117 28.14 27.117zM745.82 338.969c15.554 0 28.14-12.177 28.14-27.117 0-15.042-12.586-27.219-28.14-27.219s-28.14 12.177-28.14 27.219c0 14.94 12.586 27.117 28.14 27.117zM640.831 338.969c15.554 0 28.14-12.177 28.14-27.117 0-15.042-12.586-27.219-28.14-27.219s-28.14 12.177-28.14 27.219c0 14.94 12.586 27.117 28.14 27.117z" />
<glyph unicode="&#xe905;" glyph-name="docHome-hope" d="M768 896h-512c-106.048 0-192-86.016-192-192v-512c0-105.984 85.952-192 192-192h320c40.896 0 80.384 16.384 109.248 45.248l229.504 229.504c28.864 28.864 45.248 68.352 45.248 109.248v320c0 105.984-85.952 192-192 192zM192 192l57.408 198.976 144.896-144.896-202.304-54.080zM448.512 282.368l-165.952 166.016 319.36 319.616 166.080-166.016-319.488-319.616zM869.504 316.544l-226.048-227.84c-2.624-2.56-3.456-3.456-3.456-6.016v237.312h234.048c-1.728 0-2.624-1.408-4.544-3.456z" />
<glyph unicode="&#xe906;" glyph-name="docHome-intro" d="M983.605 140.362c3.383-10.148 5.97-23.282 7.562-39.2 1.592-15.92 2.388-3.185 2.388-19.104s-1.194-31.042-3.383-45.37c-2.388-14.327-5.97-25.072-10.547-32.435-3.382-4.775-13.133-9.75-29.052-15.322s-182.076-52.931-415.69-52.931c-213.515 0-397.381 34.624-426.633 41.19-29.251 6.567-46.762 12.14-52.93 16.716-7.563 5.572-13.134 22.088-16.716 49.747-3.582 27.859-2.189 34.823 4.577 78.203 4.179 25.073 14.327 44.176 30.445 56.911 16.317 12.935 35.62 23.083 57.508 30.446 22.088 7.561 124.369 42.782 147.85 48.951s43.976 14.924 61.487 26.466c14.327 8.755 25.272 17.312 33.032 25.47s13.333 16.317 16.317 24.476c2.985 8.159 4.577 16.516 4.577 25.47 0 8.756-0.398 18.308-0.995 28.655-1.393 16.317-6.566 28.854-15.72 37.61s-19.302 17.908-31.042 27.46c-5.572 4.775-10.149 11.342-14.328 19.899-4.178 8.556-7.76 17.113-11.143 25.868-3.383 10.149-6.766 20.695-10.148 31.44-4.776 1.394-9.552 3.582-14.328 7.164-4.178 3.383-8.556 8.159-13.332 14.327-4.776 6.17-8.755 14.925-12.337 26.466-3.383 11.342-4.577 21.889-3.383 31.042 0.995 9.154 2.786 17.114 5.572 23.88 2.586 7.56 6.765 14.525 12.337 21.49-0.597 25.67 0.597 51.538 4.179 77.407 2.587 21.69 7.561 44.773 14.725 69.248s17.511 46.564 31.042 66.065c12.935 18.307 27.262 33.43 43.181 45.37 15.92 11.939 32.037 21.291 48.354 28.057s32.635 11.342 49.35 14.327c16.516 2.587 32.634 4.179 48.354 4.179 19.501 0 38.604-2.388 56.513-7.164s34.625-10.745 50.345-18.307c15.52-7.561 29.65-15.72 41.588-24.873 12.338-9.154 22.088-18.506 29.65-28.058 16.914-21.69 29.65-45.568 38.206-71.636s14.526-50.543 17.71-73.626c4.179-27.063 5.77-54.324 5.174-81.387 4.775-2.587 8.556-6.766 11.143-12.337 2.587-4.776 4.975-10.746 6.567-18.307s1.79-16.516 0.398-27.46c-1.99-14.328-5.373-25.472-9.552-34.028-4.576-8.557-9.352-15.123-14.725-19.899-6.169-5.572-12.536-9.154-19.302-11.143-2.587-10.746-5.77-21.491-9.153-31.44-3.383-8.756-7.363-17.512-11.542-25.87-4.577-8.556-9.352-15.123-14.725-19.898-6.169-5.572-11.74-9.95-17.312-13.73-5.572-3.582-10.149-7.562-14.327-11.542-4.18-4.179-7.562-8.955-10.149-14.725s-4.776-12.736-6.169-20.894c-1.99-10.149-2.586-20.496-1.99-31.042 0.598-10.348 3.383-21.093 8.16-31.44 4.775-10.348 12.535-20.497 23.48-30.048 10.745-9.552 25.47-17.91 43.778-25.47 16.914-6.767 35.619-12.736 55.518-17.711 20.098-5.174 100.688-39.798 119.194-46.962s35.222-16.118 49.748-26.863c14.128-11.94 24.475-26.068 30.644-43.778zM531.501 2.065c3.383 0 8.557 2.188 15.72 6.566 7.164 4.577 14.128 9.552 20.894 15.72s12.735 12.338 17.71 18.307c5.174 6.17 7.562 10.746 7.562 14.328 0 4.178-0.995 11.143-2.985 21.49-1.99 10.149-4.577 21.491-7.164 33.43-2.587 12.338-5.571 24.277-8.158 36.217s-5.174 21.49-7.164 29.052c6.766 5.572 12.536 11.343 17.312 17.71 4.776 6.567 7.164 13.134 7.164 19.9 0 5.571-1.791 10.944-5.572 16.714-3.582 5.771-7.96 10.547-12.735 14.726-5.572 4.775-11.144 9.551-17.312 14.327h-50.743c-6.765-4.776-12.536-9.552-17.312-14.327-4.179-4.18-7.76-8.756-11.143-14.328s-5.174-10.745-5.174-16.317c0-4.179 2.388-9.551 7.562-16.317 5.173-6.766 11.342-13.332 18.705-19.302-0.89-1.748-3.677-10.565-6.343-19.434l-1.816-7.031c-3.383-11.343-6.567-23.481-9.551-36.217-2.985-12.536-5.771-24.475-8.159-35.619s-3.383-19.302-3.383-24.873c0-3.383 2.388-8.159 7.562-14.328s11.143-12.337 18.307-18.307c7.164-6.168 14.128-11.342 20.894-15.72 6.964-3.98 12.138-6.367 15.322-6.367z" />
<glyph unicode="&#xe907;" glyph-name="docHome-area" d="M0-64h512v1024h-512v-1024zM320 832h128v-128h-128v128zM320 576h128v-128h-128v128zM320 320h128v-128h-128v128zM64 832h128v-128h-128v128zM64 576h128v-128h-128v128zM64 320h128v-128h-128v128zM576 640h448v-64h-448v64zM576-64h128v256h192v-256h128v576h-448v-576z" />
<glyph unicode="&#xe908;" d="M850.816 488.512h56.64v-52.288h-56.64v52.288z" />
<glyph unicode="&#xe909;" d="M966.976 620.352h-701.696c-8.357 7.722-15.429 16.671-20.97 26.593l-0.278 0.543h-129.536c-18.496-35.2-60.928-61.12-111.808-66.688v-109.888l0.576-0.384c5.135-105.637 77.059-193.17 174.22-221.586l1.716-0.43c17.942 5.034 33.515 11.404 48.146 19.297l-1.234-0.609h740.864c30.009 0 54.336 24.327 54.336 54.336v0 244.48c0 30.009-24.327 54.336-54.336 54.336v0zM778.304 529.6c11.010-8.479 20.746-17.545 29.576-27.438l0.184-0.21-8.768-8.768c-8.965 10.546-18.58 19.979-28.98 28.486l-0.396 0.314zM595.584 531.2c9.536-8.192 22.144-19.84 28.608-26.688l-8.96-9.152c-6.4 7.232-19.2 19.2-28.224 28.032zM542.144 372.288c-29.217 15.816-53.508 37.183-72.215 62.875l-0.425 0.613v-74.56h-13.184v73.408c-18.857-25.901-42.834-46.913-70.567-61.852l-1.113-0.548c-2.927 3.948-5.927 7.436-9.159 10.695l0.007-0.007c29.797 14.188 54.446 34.94 72.834 60.497l0.382 0.559h-68.288v12.8h75.904v34.176h-62.4v12.352h62.4v31.488h13.184v-31.488h64.448v-12.416h-64.448v-34.304h77.44v-12.8h-69.44c19.050-25.978 43.781-46.691 72.443-60.552l1.157-0.504c-3.27-3.127-6.215-6.539-8.814-10.214l-0.146-0.218zM597.888 369.6c-1.937 3.592-4.282 6.671-7.030 9.335l-0.010 0.009c5.931 3.891 9.883 10.377 10.238 17.805l0.002 0.051v66.24h-32.768v12.224h44.8v-79.168l24.576 16.384c0.96-3.264 2.688-8 3.648-10.304-35.84-25.344-40.832-28.928-43.456-32.576zM732.736 361.408c-27.84 18.496-41.024 52.288-48.256 79.36-5.888-32.64-18.496-60.864-44.416-79.744-2.777 3.394-5.983 6.295-9.569 8.669l-0.159 0.099c48.064 33.408 47.040 100.352 47.424 165.184h12.8c0-20.032 0-40.064-1.536-59.52 3.072-18.304 12.224-78.976 53.184-104.704-3.609-2.705-6.728-5.783-9.389-9.232l-0.083-0.112zM784.832 366.912c-2.434 3.262-5.061 6.132-7.945 8.72l-0.055 0.048c5.984 4.453 9.962 11.313 10.492 19.12l0.004 0.080v68.16h-27.456v12.224h39.68v-80.256l19.648 14.592c1.616-4.285 3.296-7.87 5.21-11.306l-0.218 0.426c-31.744-24.32-36.992-28.16-39.36-31.808zM932.032 368.832h-115.2v11.84h16.768v92.288h12.416v-92.288h27.072v127.232h-49.408v11.968h104.32v-12.032h-41.984v-50.752h38.4v-12.032h-38.4v-64.384h46.144z" />
<glyph unicode="&#xe90a;" d="M1024 448c0-282.77-229.23-512-512-512s-512 229.23-512 512c0 282.77 229.23 512 512 512s512-229.23 512-512z" />
<glyph unicode="&#xe90b;" d="M64.358 895.437h894.874v-894.874h-894.874v894.874z" />
<glyph unicode="&#xe90c;" d="M959.642 89.6h-736.256v33.741c0.023 31.586 16.156 59.399 40.626 75.669l0.334 0.209 1.382 1.382c6.852 4.47 14.858 7.875 23.437 9.744l0.473 0.086 5.632 2.765c120.832 51.968 227.635 105.37 227.635 185.446 0 32.307-35.123 96.973-57.6 130.662-23.91 35.123-32.307 73.062-26.675 130.662 6.81 94.157 69.99 162.97 150.17 164.403h2.816c80.077-1.382 141.926-70.246 150.323-164.403 4.198-57.6-2.816-94.157-26.675-130.662-22.477-33.741-57.6-98.355-57.6-130.662 0-80.077 108.186-133.478 227.635-185.446l5.632-2.765c9.16-2.701 17.088-6.045 24.539-10.148l-0.629 0.317 1.382-1.382c24.804-16.479 40.937-44.292 40.96-75.875v-33.744z" />
<glyph unicode="&#xe90d;" d="M68.403 58.88v56.32c0.002 38.43 19.127 72.393 48.378 92.891l0.364 0.242 1.894 1.894 2.355 1.434c8.065 5.157 17.415 9.27 27.386 11.834l0.671 0.147 3.533 1.741h0.614c108.339 46.592 214.118 97.741 214.118 164.966 0 22.426-27.853 79.258-53.862 118.272-27.238 40.038-36.352 83.456-30.362 144.998 7.936 105.472 80.333 183.194 172.186 184.781h3.226c92.16-1.638 163.021-77.568 172.595-184.73 4.659-63.949-3.789-104.448-30.259-144.896-26.112-39.168-53.965-96-53.965-118.426 0-66.202 105.83-117.76 214.221-164.966h0.563l4.71-2.355c10.266-3.107 19.156-6.969 27.482-11.709l-0.653 0.342 2.355-1.434 1.894-1.843c29.558-20.748 48.64-54.679 48.64-93.067 0-0.041 0-0.082 0-0.123v0.006-56.32z" />
<glyph unicode="&#xe90e;" d="M826.982 81.254h-736.256v33.946c0.023 31.586 16.156 59.399 40.626 75.669l0.334 0.209 1.434 0.922c6.767 4.584 14.674 8.119 23.167 10.142l0.488 0.098 5.632 2.765c120.832 51.968 227.635 105.37 227.635 185.446 0 32.307-35.123 96.973-57.6 130.662-23.91 35.123-32.307 73.062-26.675 130.662 7.014 94.157 70.246 162.97 150.323 164.403h2.816c80.077-1.382 141.926-70.246 150.323-164.403 4.198-57.6-2.816-94.157-26.675-130.662-22.477-33.741-57.6-98.355-57.6-130.662 0-80.077 108.186-133.478 227.635-185.446l5.632-2.765c9.16-2.701 17.088-6.045 24.539-10.148l-0.629 0.317 1.382-1.382c24.73-16.501 40.802-44.287 40.806-75.826v-33.742z" />
<glyph unicode="&#xe90f;" d="M-0.768 960.768h1025.536v-1025.536h-1025.536v1025.536z" />
<glyph unicode="&#xe910;" d="M487.629 87.142v0c-0.010 0-0.023 0-0.035 0-2.532 0-4.88 0.785-6.814 2.125l0.040-0.026c-0.614 0.41-76.8 48.486-320.051 29.491-1.382 0-2.97 0-4.608 0-0.013 0-0.028 0-0.043 0-3.039 0-6.022 0.242-8.929 0.708l0.32-0.042c-14.336 2.202-62.208 14.643-64.358 80.691-1.69 53.914-0.614 355.482 0 484.25v46.848c-0.003 0.263-0.005 0.575-0.005 0.886 0 16.973 5.473 32.668 14.751 45.416l-0.154-0.222c13.393 17.7 34.197 29.183 57.707 29.796l0.097 0.002c11.162 0.717 273.613 15.36 340.685-54.682 2.054-2.135 3.322-5.041 3.328-8.242v-645.121c0-6.617-5.364-11.981-11.981-11.981v0z" />
<glyph unicode="&#xe911;" d="M389.99 542.874h-206.592c-6.899 1.272-12.056 7.24-12.056 14.413s5.157 13.141 11.966 14.399l0.090 0.014h206.592c6.899-1.272 12.056-7.24 12.056-14.413s-5.157-13.141-11.966-14.399l-0.090-0.014z" />
<glyph unicode="&#xe912;" d="M389.99 373.965h-206.592c-6.899 1.272-12.056 7.24-12.056 14.413s5.157 13.141 11.966 14.399l0.090 0.014h206.592c6.899-1.272 12.056-7.24 12.056-14.413s-5.157-13.141-11.966-14.399l-0.090-0.014z" />
<glyph unicode="&#xe913;" d="M536.474 87.142c0 0 0 0 0 0-6.609 0-11.974 5.329-12.032 11.924v645.126c0 0.008 0 0.018 0 0.028 0 3.211 1.269 6.125 3.332 8.27l-0.004-0.004c67.072 70.246 329.523 55.347 340.685 54.682 23.625-0.588 44.445-12.102 57.668-29.66l0.137-0.19c9.124-12.554 14.596-28.276 14.596-45.275 0-0.283-0.002-0.566-0.005-0.848v0.043-46.848c0.461-128.768 1.536-430.387 0-484.25-2.15-66.048-50.022-78.49-64.666-80.742-2.499-0.391-5.382-0.615-8.316-0.615-0.046 0-0.093 0-0.139 0h0.007q-2.355 0-4.659 0c-243.302 18.893-319.334-29.133-320.051-29.594-1.86-1.242-4.144-1.987-6.602-1.997h-0.003z" />
<glyph unicode="&#xe914;" d="M840.704 542.874h-206.592c-6.899 1.272-12.056 7.24-12.056 14.413s5.157 13.141 11.966 14.399l0.090 0.014h206.592c6.899-1.272 12.056-7.24 12.056-14.413s-5.157-13.141-11.966-14.399l-0.090-0.014z" />
<glyph unicode="&#xe915;" d="M840.704 373.965h-206.592c-6.899 1.272-12.056 7.24-12.056 14.413s5.157 13.141 11.966 14.399l0.090 0.014h206.592c6.899-1.272 12.056-7.24 12.056-14.413s-5.157-13.141-11.966-14.399l-0.090-0.014z" />
<glyph unicode="&#xe916;" d="M-0.768 960.768h1025.536v-1025.536h-1025.536v1025.536z" />
<glyph unicode="&#xe917;" d="M764.877 773.478v-87.757c0-26.552-21.525-48.077-48.077-48.077s-48.077 21.525-48.077 48.077v0 87.757h-311.347v-87.757c0-26.552-21.525-48.077-48.077-48.077s-48.077 21.525-48.077 48.077v0 87.757h-75.264c-0.091 0-0.199 0.001-0.308 0.001-43.231 0-78.293-34.973-78.438-78.169v-573.761c0.232-43.144 35.261-78.029 78.437-78.029 0.108 0 0.217 0 0.325 0.001h652.066c0.076 0 0.166 0 0.257 0 43.241 0 78.315 34.966 78.489 78.166v573.611c-0.174 43.216-35.248 78.183-78.489 78.183-0.090 0-0.18 0-0.271 0h0.014z" />
<glyph unicode="&#xe918;" d="M309.299 654.694c0.030 0 0.066 0 0.103 0 18.005 0 32.607 14.567 32.665 32.558v132.819c-0.716 17.559-15.124 31.523-32.794 31.523s-32.078-13.964-32.792-31.458l-0.002-0.065v-132.813c0.087-18.003 14.701-32.563 32.716-32.563 0.018 0 0.036 0 0.054 0h-0.003zM716.8 654.694c0.030 0 0.066 0 0.103 0 18.005 0 32.607 14.567 32.665 32.558v132.819c-0.716 17.559-15.124 31.523-32.794 31.523s-32.078-13.964-32.792-31.458l-0.002-0.065v-132.813c0.087-18.003 14.701-32.563 32.716-32.563 0.036 0 0.072 0 0.108 0h-0.006z" />
<glyph unicode="&#xe919;" d="M257.485 600.627h508.979c29.747 0 53.862-24.115 53.862-53.862v-327.987c0-29.747-24.115-53.862-53.862-53.862h-508.979c-29.747 0-53.862 24.115-53.862 53.862v327.987c0 29.747 24.115 53.862 53.862 53.862z" />
<glyph unicode="&#xe91a;" d="M385.434 285.645c0.019-0.302 0.030-0.656 0.030-1.012 0-8.928-6.924-16.238-15.695-16.854l-0.053-0.003h-69.734c-8.848 0.593-15.8 7.915-15.8 16.86 0 0.355 0.011 0.707 0.032 1.056l-0.002-0.048v50.432c-0.017 0.287-0.027 0.623-0.027 0.961 0 8.955 6.945 16.288 15.743 16.905l0.054 0.003h69.734c8.824-0.619 15.749-7.929 15.749-16.857 0-0.356-0.011-0.709-0.033-1.060l0.002 0.048v-50.432z" />
<glyph unicode="&#xe91b;" d="M385.434 429.466c0.019-0.302 0.030-0.656 0.030-1.012 0-8.928-6.924-16.238-15.695-16.854l-0.053-0.003h-69.734c-8.848 0.593-15.8 7.915-15.8 16.86 0 0.355 0.011 0.707 0.032 1.056l-0.002-0.048v50.381c-0.017 0.287-0.027 0.623-0.027 0.961 0 8.955 6.945 16.288 15.743 16.905l0.054 0.003h69.734c8.824-0.619 15.749-7.929 15.749-16.857 0-0.356-0.011-0.709-0.033-1.060l0.002 0.048v-50.381z" />
<glyph unicode="&#xe91c;" d="M562.534 285.645c0.019-0.302 0.030-0.656 0.030-1.012 0-8.928-6.924-16.238-15.695-16.854l-0.053-0.003h-69.734c-8.848 0.593-15.8 7.915-15.8 16.86 0 0.355 0.011 0.707 0.032 1.056l-0.002-0.048v50.432c-0.017 0.287-0.027 0.623-0.027 0.961 0 8.955 6.945 16.288 15.743 16.905l0.054 0.003h69.734c8.824-0.619 15.749-7.929 15.749-16.857 0-0.356-0.011-0.709-0.033-1.060l0.002 0.048v-50.432z" />
<glyph unicode="&#xe91d;" d="M562.534 429.466c0.019-0.302 0.030-0.656 0.030-1.012 0-8.928-6.924-16.238-15.695-16.854l-0.053-0.003h-69.734c-8.848 0.593-15.8 7.915-15.8 16.86 0 0.355 0.011 0.707 0.032 1.056l-0.002-0.048v50.381c-0.017 0.287-0.027 0.623-0.027 0.961 0 8.955 6.945 16.288 15.743 16.905l0.054 0.003h69.734c8.824-0.619 15.749-7.929 15.749-16.857 0-0.356-0.011-0.709-0.033-1.060l0.002 0.048v-50.381z" />
<glyph unicode="&#xe91e;" d="M739.738 285.645c0.019-0.302 0.030-0.656 0.030-1.012 0-8.928-6.924-16.238-15.695-16.854l-0.053-0.003h-69.734c-8.848 0.593-15.8 7.915-15.8 16.86 0 0.355 0.011 0.707 0.032 1.056l-0.002-0.048v50.432c-0.017 0.287-0.027 0.623-0.027 0.961 0 8.955 6.945 16.288 15.743 16.905l0.054 0.003h69.734c8.824-0.619 15.749-7.929 15.749-16.857 0-0.356-0.011-0.709-0.033-1.060l0.002 0.048v-50.432z" />
<glyph unicode="&#xe91f;" d="M739.738 429.466c0.019-0.302 0.030-0.656 0.030-1.012 0-8.928-6.924-16.238-15.695-16.854l-0.053-0.003h-69.734c-8.848 0.593-15.8 7.915-15.8 16.86 0 0.355 0.011 0.707 0.032 1.056l-0.002-0.048v50.381c-0.017 0.287-0.027 0.623-0.027 0.961 0 8.955 6.945 16.288 15.743 16.905l0.054 0.003h69.734c8.824-0.619 15.749-7.929 15.749-16.857 0-0.356-0.011-0.709-0.033-1.060l0.002 0.048v-50.381z" />
<glyph unicode="&#xe920;" d="M-0.768 960.768h1025.536v-1025.536h-1025.536v1025.536z" />
<glyph unicode="&#xe921;" d="M935.629 792.269h-726.682c-21.604 0-39.117-17.513-39.117-39.117v0-520.858c0-21.604 17.513-39.117 39.117-39.117v0h244.531l124.262-124.058h11.981l113.203 124.262h232.704c21.604 0 39.117 17.513 39.117 39.117v0 520.653c0 21.604-17.513 39.117-39.117 39.117v0z" />
<glyph unicode="&#xe922;" d="M334.95 124.928h-204.134c-57.958 0-81.613 23.654-81.613 81.613v402.432c0 58.726 22.886 81.613 81.613 81.613h609.741c67.738 0 81.613-32.614 81.613-81.613v-402.381c0-50.381-13.67-81.613-81.613-81.613h-184.576l-111.053-123.648z" />
<glyph unicode="&#xe923;" d="M796.57 206.541c0-42.906-7.885-56.013-56.013-56.013h-195.994l-99.533-110.797-98.611 110.797h-215.603c-46.387 0-56.013 14.029-56.013 56.013v402.432c0 43.93 11.52 56.013 56.013 56.013h609.741c47.206 0 56.013-13.978 56.013-56.013v-402.381z" />
<glyph unicode="&#xe924;" d="M172.493 554.547h413.747c7.069 0 12.8-5.731 12.8-12.8v-6.042c0-7.069-5.731-12.8-12.8-12.8h-413.747c-7.069 0-12.8 5.731-12.8 12.8v6.042c0 7.069 5.731 12.8 12.8 12.8z" />
<glyph unicode="&#xe925;" d="M169.523 436.173h240.333c5.429 0 9.83-4.401 9.83-9.83v-11.981c0-5.429-4.401-9.83-9.83-9.83h-240.333c-5.429 0-9.83 4.401-9.83 9.83v11.981c0 5.429 4.401 9.83 9.83 9.83z" />
<glyph unicode="&#xe926;" d="M170.752 317.85h305.152c6.108 0 11.059-4.951 11.059-11.059v-9.523c0-6.108-4.951-11.059-11.059-11.059h-305.152c-6.108 0-11.059 4.951-11.059 11.059v9.523c0 6.108 4.951 11.059 11.059 11.059z" />
<glyph unicode="&#xe927;" d="M966.976 620.352h-701.696c-8.357 7.722-15.429 16.671-20.97 26.593l-0.278 0.543h-129.536c-18.496-35.2-60.928-61.12-111.808-66.688v-109.888l0.576-0.384c5.135-105.637 77.059-193.17 174.22-221.586l1.716-0.43c17.942 5.034 33.515 11.404 48.146 19.297l-1.234-0.609h740.864c30.009 0 54.336 24.327 54.336 54.336v0 244.48c0 30.009-24.327 54.336-54.336 54.336v0zM778.304 529.6c11.010-8.479 20.746-17.545 29.576-27.438l0.184-0.21-8.768-8.768c-8.965 10.546-18.58 19.979-28.98 28.486l-0.396 0.314zM595.584 531.2c9.536-8.192 22.144-19.84 28.608-26.688l-8.96-9.152c-6.4 7.232-19.2 19.2-28.224 28.032zM508.416 366.784h-72.704c-29.76 0-39.104 5.312-39.104 27.84v96h12.8v-32h102.016v51.712h-125.312v12.8h138.24v-86.4h-12.8v9.536h-101.952v-52.032c0-12.032 4.608-14.848 25.152-14.848h73.856c21.184 0 24.384 6.4 27.072 37.568 3.675-2.328 7.961-4.103 12.544-5.075l0.256-0.045c-3.456-34.816-9.6-45.056-40.064-45.056zM598.016 369.664c-1.937 3.592-4.282 6.671-7.030 9.335l-0.010 0.009c5.864 3.904 9.764 10.358 10.11 17.742l0.002 0.050v66.24h-32.768v12.224h44.8v-79.168l24.576 16.384c0.96-3.264 2.688-8 3.648-10.304-35.84-25.344-40.832-28.928-43.456-32.576zM732.864 361.472c-27.84 18.496-41.024 52.288-48.256 79.36-5.888-32.64-18.496-60.864-44.416-79.744-2.777 3.394-5.983 6.295-9.569 8.669l-0.159 0.099c47.936 33.344 46.912 100.288 47.296 165.12h12.8c0-20.032 0-40.064-1.536-59.52 3.072-18.304 12.224-78.976 53.184-104.704-3.609-2.705-6.728-5.783-9.389-9.232l-0.083-0.112zM784.96 366.976c-2.434 3.262-5.061 6.132-7.945 8.72l-0.055 0.048c5.984 4.453 9.962 11.313 10.492 19.12l0.004 0.080v68.096h-27.456v12.224h39.68v-80.256l19.52 14.592c1.616-4.285 3.296-7.87 5.21-11.306l-0.218 0.426c-31.744-24.32-36.992-28.16-39.36-31.808zM932.16 368.896h-115.2v11.776h16.768v92.288h12.416v-92.288h27.072v127.232h-49.408v11.968h104.32v-12.032h-41.984v-50.752h38.4v-12.032h-38.4v-64.384h46.144z" />
<glyph unicode="&#xe928;" d="M331.136 487.872c0.006-0.616 0.009-1.344 0.009-2.073 0-98.511-62.695-182.378-150.361-213.878l-1.585-0.497c-89.183 32.033-151.818 115.867-151.818 214.33 0 0.745 0.004 1.488 0.011 2.231l-0.001-0.113v70.4c41.693 11.561 76.934 34.816 103.036 65.985l0.26 0.319h97.216c26.339-31.488 61.559-54.743 101.798-65.963l1.434-0.341z" />
<glyph unicode="&#xe929;" d="M70.604 450.259l22.627 22.627 81.459-81.459-22.627-22.627-81.459 81.459z" />
<glyph unicode="&#xe92a;" d="M152.081 368.798l-22.627 22.627 135.765 135.765 22.627-22.627-135.765-135.765z" />
<glyph unicode="&#xe92b;" glyph-name="hospital-area" d="M512 960c-230.4 0-416-185.6-416-422.4 0-230.4 416-601.6 416-601.6s416 371.2 416 601.6c0 236.8-185.6 422.4-416 422.4zM512 377.6c-96 0-172.8 76.8-172.8 172.8s76.8 172.8 172.8 172.8c96 0 172.8-76.8 172.8-172.8s-76.8-172.8-172.8-172.8z" />
<glyph unicode="&#xe92c;" glyph-name="add-edit" d="M787.2 73.216c19.52 0 35.328-16.384 35.328-36.608 0.004-0.192 0.006-0.419 0.006-0.646 0-19.642-15.744-35.606-35.3-35.962h-623.969c-19.562 0.392-35.27 16.342-35.27 35.961 0 0.227 0.002 0.454 0.006 0.681v-0.034c0 20.224 15.808 36.608 35.264 36.608h624zM161.6 122.624l84.8 234.944 138.112-143.36-222.912-91.52zM412.864 241.216l-139.328 144.576 378.752 389.952 139.264-144.64-378.688-389.888zM817.536 661.184l-139.264 144.64 69.632 72.256c10.518 11.073 25.351 17.962 41.792 17.962s31.274-6.889 41.769-17.937l0.023-0.025 55.68-57.856c23.168-23.936 23.168-62.784 0-86.784l-69.632-72.256z" />
<glyph unicode="&#xe92d;" glyph-name="edit" horiz-adv-x="1025" d="M960.365-1.545c0-17.875-12.504-32.454-28.014-32.454h-840.487c-15.378 0-27.884 14.579-27.884 32.454v0c0 18.004 12.506 32.455 27.884 32.455h840.487c15.51 0 28.014-14.451 28.014-32.455v0zM855.507 687.267c-12.382-12.616-32.765-12.616-45.266 0l-135.685 137.624c-12.441 12.61-12.441 33.278 0 45.891l45.266 45.961c12.384 12.616 32.766 12.616 45.271 0l135.811-137.687c12.379-12.68 12.379-33.342 0-45.896l-45.397-45.895zM357.668 182.417c-12.382-12.552-32.767-12.552-45.268 0l-135.872 137.622c-12.442 12.615-12.442 33.282-0.062 45.893l407.488 413.124c12.44 12.551 32.827 12.551 45.267 0l135.747-137.686c12.508-12.681 12.508-33.346 0-45.898l-407.299-413.057zM131.192 274.146c-12.438 12.611-25.445 8.617-28.883-8.877l-32.765-165.896c-3.441-17.495 7.879-28.905 25.136-25.421l163.569 33.093c17.257 3.488 21.13 16.67 8.754 29.351l-135.812 137.75z" />
<glyph unicode="&#xe92e;" glyph-name="footer-home" d="M404.512 18.048v286.624h214.976v-286.624h218.56v429.952h139.744l-465.792 429.952-465.792-429.952h139.744v-429.952z" />
<glyph unicode="&#xe92f;" glyph-name="footer-contact" horiz-adv-x="1025" d="M204.807 102.38v25.601c0 7.068-5.732 12.8-12.8 12.8h-179.207c-7.071 0-12.8-5.732-12.8-12.8v-25.601c0-7.068 5.73-12.8 12.8-12.8h179.207c7.069 0 12.8 5.732 12.8 12.8zM12.8 755.205h179.207c7.068 0 12.8 5.73 12.8 12.8v25.601c0 7.068-5.732 12.8-12.8 12.8h-179.207c-7.071 0-12.8-5.732-12.8-12.8v-25.601c0-7.072 5.73-12.8 12.8-12.8zM12.8 422.392h179.207c7.068 0 12.8 5.73 12.8 12.8v25.601c0 7.068-5.732 12.8-12.8 12.8h-179.207c-7.071 0-12.8-5.732-12.8-12.8v-25.601c0-7.072 5.73-12.8 12.8-12.8zM972.838 960.012h-819.232c-28.279 0-51.202-22.925-51.202-51.202v-51.202h128.006c14.14 0 25.601-11.464 25.601-25.601v-102.404c0-14.14-11.462-25.601-25.601-25.601h-128.006v-179.207h128.006c14.14 0 25.601-11.462 25.601-25.601v-102.404c0-14.14-11.462-25.601-25.601-25.601h-128.006v-179.207h128.006c14.14 0 25.601-11.462 25.601-25.601v-102.404c0-14.14-11.462-25.601-25.601-25.601h-128.006v-51.202c0-28.279 22.923-51.202 51.202-51.202h819.232c28.279 0 51.202 22.923 51.202 51.202v921.633c-0.001 28.277-22.924 51.202-51.202 51.202zM803.61 283.489c-6.16-5.11-18.773-12.486-20.195-13.304l-2.414-1.397h-358.751l-2.414 1.397c-1.418 0.819-14.050 8.195-20.21 13.315-10.148 8.421-15.611 20.251-15.368 33.302l0.046 3.499c0.064 7.012 0.136 14.27 2.095 21.669 4.601 17.422 17.519 28.716 30.36 38.804 16.806 13.215 36.668 24.429 64.392 36.349 13.205 5.676 27.314 11.122 43.145 16.615 6.784 2.356 13.869 9.736 18.049 18.781 3.305 7.153 4.285 14.288 2.686 19.305l-0.773 0.911c-18.827 22.836-33.796 43.097-40.884 78.264-5.702 28.253-4.883 54.945 2.427 79.338 11.206 37.395 35.393 61.706 69.945 70.308 5.215 1.3 10.283 2.215 15.307 2.752v0.576l21.147 0.031v-0.606c5.018-0.537 10.097-1.451 15.317-2.757 34.546-8.597 58.729-32.908 69.94-70.303 7.298-24.388 8.119-51.075 2.432-79.33-7.109-35.178-22.073-55.444-40.895-78.272l-0.688-0.809c-0.031-0.031-0.049-0.061-0.069-0.092-1.606-5.069-0.624-12.181 2.675-19.316 4.18-9.055 11.26-16.425 18.044-18.773 15.785-5.494 29.892-10.927 43.15-16.622 27.718-11.92 47.569-23.132 64.392-36.349 12.271-9.641 25.749-21.382 30.355-38.819 1.949-7.365 2.020-14.608 2.092-21.612l0.049-3.54c0.239-13.052-5.224-24.883-15.382-33.312z" />
<glyph unicode="&#xe930;" glyph-name="footer-my" d="M532.48 857.6c105.813 0 213.333-90.453 213.333-155.307v-141.653c0-59.733-29.013-167.253-92.16-216.747-10.24-8.533-17.067-22.187-15.36-37.547 1.707-13.653 10.24-25.6 23.893-32.427l247.467-116.053c11.947-5.12 27.307-15.36 32.427-22.187v-81.92c0-8.533-6.827-15.36-15.36-15.36h-788.48c-8.533 0-15.36 6.827-15.36 15.36v81.92c5.12 6.827 18.773 17.067 32.427 22.187l247.467 116.053c11.947 6.827 22.187 18.773 23.893 32.427s-3.413 27.307-15.36 37.547c-63.147 51.2-92.16 157.013-92.16 216.747v141.653c0 64.853 107.52 155.307 213.333 155.307z" />
<glyph unicode="&#xe931;" glyph-name="footer-message" d="M513.4 862.8c-220.5 0-399.2-156.4-399.2-349.3 0-110.3 58.5-208.4 149.7-272.5v-176.7l174.9 106.1c24.2-4 49.1-6.3 74.6-6.3 220.5 0 399.2 156.4 399.2 349.3 0.1 193-178.7 349.4-399.2 349.4zM638.2 388.7h-249.5c-13.8 0-25 11.2-25 25s11.2 25 25 25h249.5c13.8 0 25-11.2 25-25s-11.2-25-25-25zM688.1 538.5h-349.3c-13.8 0-25 11.2-25 25s11.2 25 25 25h349.3c13.8 0 25-11.2 25-25 0-13.9-11.2-25-25-25z" />
<glyph unicode="&#xe932;" glyph-name="footer-msg-default" d="M512 959.634c-269.312 0-487.619-196.51-487.619-438.882 0-143.555 76.922-270.629 195.365-350.696v-233.716l249.295 147.505c14.19-1.097 28.477-1.95 42.984-1.95 269.312 0 487.619 196.486 487.619 438.857s-218.331 438.882-487.643 438.882zM512 130.658c-13.922 0-27.648 0.902-39.229 1.804l-15.336 1.195-188.928-111.811v174.104l-21.455 14.531c-110.519 74.703-173.909 187.806-173.909 310.272 0 215.113 196.876 390.12 438.857 390.12s438.857-175.006 438.857-390.12c0-215.089-196.876-390.095-438.857-390.095zM682.667 618.667h-341.333c-13.483 0-24.381-10.923-24.381-24.381s10.898-24.381 24.381-24.381h341.333c13.483 0 24.381 10.923 24.381 24.381 0 13.483-10.898 24.381-24.381 24.381zM609.524 472.381h-268.19c-13.483 0-24.381-10.898-24.381-24.381s10.898-24.381 24.381-24.381h268.19c13.458 0 24.381 10.898 24.381 24.381s-10.923 24.381-24.381 24.381z" />
<glyph unicode="&#xe933;" glyph-name="my-service" d="M597.248 908.544h318.976c30.822 0 55.808-24.986 55.808-55.808v-319.232c0-30.822-24.986-55.808-55.808-55.808h-318.976c-30.822 0-55.808 24.986-55.808 55.808v319.232c0 30.822 24.986 55.808 55.808 55.808zM426.496-12.8h-318.976c-0.152-0.001-0.332-0.002-0.513-0.002-30.822 0-55.808 24.986-55.808 55.808 0 0.091 0 0.182 0.001 0.272v-0.014 319.232c0 0.001 0 0.002 0 0.002 0 30.822 24.986 55.808 55.808 55.808 0.18 0 0.36-0.001 0.54-0.003h318.948c30.822 0 55.808-24.986 55.808-55.808v0 0-319.232c0-0.076 0.001-0.166 0.001-0.256 0-30.822-24.986-55.808-55.808-55.808 0 0 0 0-0.001 0v0zM482.304 533.504c0-30.822-24.986-55.808-55.808-55.808v0h-318.976c-0.152-0.001-0.332-0.002-0.512-0.002-30.822 0-55.808 24.986-55.808 55.808 0 0.001 0 0.002 0 0.002v0 319.232c0 0.077-0.001 0.168-0.001 0.258 0 30.822 24.986 55.808 55.808 55.808 0.18 0 0.36-0.001 0.54-0.003h318.948c30.822 0 55.808-24.986 55.808-55.808v0 0zM963.072 264.448c-31.812 0-57.6 25.788-57.6 57.6v0 0c0.002 10.642 2.853 20.618 7.83 29.208l-0.15-0.28c0.693 1.242 1.101 2.725 1.101 4.302 0 3.278-1.76 6.145-4.387 7.707l-0.041 0.023-90.624 52.736c-1.289 0.76-2.84 1.209-4.496 1.209-3.322 0-6.222-1.808-7.769-4.494l-0.023-0.043c-10.161-17.267-28.653-28.672-49.809-28.672-0.039 0-0.078 0-0.117 0h0.006c-21.019 0.635-39.293 11.822-49.772 28.421l-0.148 0.251c-1.509 2.715-4.36 4.521-7.633 4.521-1.621 0-3.139-0.443-4.439-1.215l0.040 0.022-90.88-52.736c-2.668-1.585-4.429-4.452-4.429-7.73 0-1.578 0.408-3.060 1.124-4.348l-0.023 0.046c4.806-8.231 7.643-18.12 7.643-28.672 0-31.799-25.767-57.579-57.561-57.6h-0.002c-4.948 0-8.96-4.012-8.96-8.96v0-104.96c0-4.948 4.012-8.96 8.96-8.96v0c31.796-0.021 57.563-25.801 57.563-57.6 0-10.552-2.837-20.441-7.791-28.946l0.148 0.274c-0.693-1.242-1.101-2.725-1.101-4.302 0-3.278 1.76-6.145 4.387-7.707l0.041-0.023 90.88-52.736c1.289-0.76 2.84-1.209 4.496-1.209 3.322 0 6.222 1.808 7.769 4.494l0.023 0.043c10.133 17.386 28.69 28.885 49.932 28.885 10.547 0 20.432-2.835 28.935-7.784l-0.275 0.148c8.746-5.152 15.84-12.246 20.844-20.721l0.148-0.271c1.57-2.729 4.47-4.537 7.792-4.537 1.656 0 3.207 0.449 4.538 1.232l-0.042-0.023 90.88 52.736c2.668 1.585 4.429 4.452 4.429 7.73 0 1.578-0.408 3.060-1.124 4.348l0.023-0.046c-4.841 8.255-7.7 18.179-7.7 28.771 0 21.164 11.414 39.662 28.423 49.674l0.27 0.147c8.134 4.829 17.932 7.683 28.396 7.683 0.187 0 0.374-0.001 0.56-0.003h-0.029c4.948 0 8.96 4.012 8.96 8.96v0 104.96c-0.143 4.979-4.213 8.96-9.212 8.96-0.001 0-0.002 0-0.004 0v0zM756.736 128.768c-41.002 0-74.24 33.238-74.24 74.24s33.238 74.24 74.24 74.24c41.002 0 74.24-33.238 74.24-74.24v0 0c0-41.002-33.238-74.24-74.24-74.24v0z" />
<glyph unicode="&#xe934;" glyph-name="my-set" d="M512 571.136c-68.006 0-123.136-55.13-123.136-123.136s55.13-123.136 123.136-123.136c68.006 0 123.136 55.13 123.136 123.136v0c0 68.006-55.13 123.136-123.136 123.136v0zM905.728 448c1.465 53.28 36.347 98.041 84.374 114.177l0.874 0.255c-13.149 54.305-33.582 102.129-60.593 145.425l1.201-2.065c-16.241-8.366-35.442-13.27-55.788-13.27-33.064 0-63.103 12.951-85.321 34.056l0.053-0.050c-21.055 22.165-34.006 52.204-34.006 85.268 0 20.347 4.904 39.548 13.595 56.486l-0.325-0.697c-41.231 25.814-89.055 46.247-140.009 58.7l-3.351 0.692c-16.475-48.794-61.212-83.566-114.266-84.988l-0.166-0.004c-53.22 1.426-97.957 36.198-114.175 84.119l-0.257 0.873c-54.305-13.145-102.129-33.578-145.424-60.592l2.064 1.2c8.366-16.241 13.27-35.442 13.27-55.788 0-33.064-12.951-63.103-34.056-85.321l0.050 0.053c-22.165-21.055-52.204-34.006-85.268-34.006-20.347 0-39.548 4.904-56.486 13.595l0.697-0.325c-25.81-41.231-46.243-89.055-58.699-140.007l-0.693-3.353c48.901-16.391 83.783-61.152 85.244-114.262l0.004-0.17c-1.465-53.28-36.347-98.041-84.374-114.177l-0.874-0.255c13.121-54.398 33.558-102.311 60.594-145.685l-1.202 2.069c16.241 8.366 35.442 13.27 55.788 13.27 33.064 0 63.103-12.951 85.321-34.056l-0.053 0.050c21.055-22.165 34.006-52.204 34.006-85.268 0-20.347-4.904-39.548-13.595-56.486l0.325 0.697c41.231-25.81 89.055-46.243 140.007-58.699l3.353-0.693c16.306 49.008 61.091 84 114.258 85.5l0.174 0.004c53.28-1.465 98.041-36.347 114.177-84.374l0.255-0.874c54.398 13.121 102.311 33.558 145.685 60.594l-2.069-1.202c-9.123 16.463-14.492 36.098-14.492 56.988 0 65.885 53.411 119.296 119.296 119.296 20.89 0 40.525-5.369 57.602-14.803l-0.614 0.311c25.835 41.306 46.271 89.219 58.703 140.267l0.689 3.349c-48.93 16.277-83.888 60.939-85.5 113.99l-0.004 0.186zM512 201.728c-136.012 0-246.272 110.26-246.272 246.272s110.26 246.272 246.272 246.272c136.012 0 246.272-110.26 246.272-246.272v0c0-136.012-110.26-246.272-246.272-246.272v0z" />
<glyph unicode="&#xe935;" glyph-name="my-idCard" d="M962.56 824.576h-901.12c-28.461-0.85-51.21-24.125-51.21-52.714 0-0.368 0.004-0.735 0.011-1.101l-0.001 0.055v-645.632c-0.007-0.311-0.010-0.678-0.010-1.046 0-28.589 22.749-51.864 51.132-52.712l0.078-0.002h901.12c28.461 0.85 51.21 24.125 51.21 52.714 0 0.368-0.004 0.735-0.011 1.101l0.001-0.055v645.632c0.007 0.311 0.010 0.678 0.010 1.046 0 28.589-22.749 51.864-51.132 52.712l-0.078 0.002zM480 243.2c-0.536-5.523-2.179-10.563-4.706-15.037l0.098 0.189c-3.296-3.216-7.464-5.553-12.116-6.623l-0.172-0.033c-6.933-2.261-15.55-4.393-24.362-5.961l-1.238-0.183q-15.36-2.816-33.792-5.12t-37.12-4.096l-36.096-2.816c-11.52 0-21.76 0-30.464 0s-18.944 0-30.208 0l-35.584 2.816-36.352 3.584q-17.92 2.048-33.024 4.352c-9.984 1.536-18.432 3.328-25.6 4.864-4.81 0.836-9.111 2.445-12.983 4.707l0.183-0.099c-4.152 6.547-6.697 14.475-6.911 22.983l-0.001 0.057c-0.604 5.665-0.948 12.238-0.948 18.892 0 10.777 0.904 21.342 2.639 31.625l-0.155-1.109c1.163 10.256 6.056 19.192 13.269 25.563l0.043 0.037c7.311 5.909 15.791 10.762 24.984 14.138l0.616 0.198c9.984 3.584 19.968 6.912 30.208 9.728 16.946 4.539 31.434 13.386 42.713 25.302l0.039 0.042c2.97 3.138 5.458 6.772 7.319 10.758l0.105 0.25c1.457 3.322 2.305 7.194 2.305 11.264 0 0.090 0 0.18-0.001 0.27v-0.014c0 4.096 0 8.704 0 13.824-0.375 6.77-3.132 12.832-7.438 17.423l0.014-0.015q-6.656 6.4-13.824 12.288c-2.745 2.558-4.984 5.617-6.581 9.037l-0.075 0.179c-1.556 3.169-3.2 7.145-4.62 11.227l-0.244 0.805q-2.816 7.168-5.12 15.104c-2.442 0.871-4.559 1.996-6.475 3.38l0.075-0.052c-2.141 1.937-4.002 4.124-5.555 6.528l-0.077 0.128c-2.244 3.461-4.154 7.445-5.53 11.67l-0.102 0.362c-1.353 3.598-2.136 7.757-2.136 12.098 0 0.878 0.032 1.748 0.095 2.609l-0.007-0.115c0.184 4.108 1.108 7.953 2.641 11.472l-0.081-0.208c1.452 3.84 3.444 7.15 5.924 10.027l-0.036-0.043c-0.063 2.098-0.099 4.567-0.099 7.044 0 10.056 0.594 19.974 1.749 29.72l-0.114-1.18c1.831 12.614 4.154 23.523 7.109 34.169l-0.453-1.913c3.127 11.77 7.868 22.088 14.061 31.352l-0.237-0.376c5.227 8.34 11.514 15.443 18.789 21.381l0.155 0.123c12.106 9.754 26.974 16.568 43.253 19.132l0.523 0.068c6.245 0.978 13.447 1.536 20.78 1.536 0.075 0 0.149 0 0.224 0h-0.012c0.478 0.008 1.042 0.013 1.608 0.013 16.932 0 32.867-4.27 46.787-11.791l-0.522 0.258c12.277-6.49 22.588-15.084 30.826-25.406l0.15-0.194c7.432-9.443 13.297-20.526 16.965-32.567l0.187-0.713c3.039-9.323 5.883-20.873 7.957-32.688l0.235-1.616c1.372-9.175 2.156-19.764 2.156-30.535 0-2.406-0.039-4.802-0.117-7.189l0.009 0.348c1.985-1.692 3.616-3.731 4.812-6.033l0.052-0.111c2.249-4.554 3.565-9.914 3.565-15.582 0-2.092-0.179-4.142-0.523-6.135l0.030 0.213c-0.518-5.861-2.069-11.247-4.471-16.14l0.119 0.268c-1.837-3.609-3.967-6.72-6.441-9.52l0.041 0.048c-2.22-2.352-5.095-4.062-8.333-4.841l-0.115-0.023c-1.28-5.376-2.816-10.496-4.096-14.848-1.75-4.757-3.561-8.724-5.625-12.534l0.249 0.502c-1.703-3.456-4.033-6.359-6.865-8.667l-0.047-0.037-7.68-6.656c-2.284-1.778-4.297-3.71-6.096-5.83l-0.048-0.058c-1.771-2.001-3.307-4.274-4.527-6.732l-0.081-0.18c-1.221-2.657-2.199-5.749-2.78-8.978l-0.036-0.238c-0.216-2.187-0.339-4.727-0.339-7.296s0.123-5.109 0.364-7.615l-0.025 0.319c0.209-5.319 1.413-10.305 3.43-14.85l-0.102 0.258c2.561-5.418 6.008-10.011 10.201-13.79l0.039-0.034c5.562-4.872 12.111-8.784 19.288-11.386l0.424-0.134c7.126-3.135 15.659-6.031 24.474-8.212l1.126-0.236c10.321-2.747 18.841-5.633 27.119-8.993l-1.519 0.545c8.415-3.339 15.682-7.561 22.205-12.687l-0.189 0.143c6.311-5.033 11.102-11.723 13.736-19.415l0.088-0.297c1.377-5.223 2.548-11.574 3.271-18.060l0.057-0.628c0.815-6.617 1.28-14.277 1.28-22.045 0-0.080 0-0.159 0-0.239v0.013c0.003-0.353 0.005-0.769 0.005-1.186 0-7.081-0.56-14.032-1.639-20.809l0.098 0.748zM881.152 283.904h-283.136c-10.738 3.205-18.432 12.992-18.432 24.576s7.694 21.371 18.251 24.529l0.181 0.047h283.136c10.738-3.205 18.432-12.992 18.432-24.576s-7.694-21.371-18.251-24.529l-0.181-0.047zM881.152 431.104h-283.136c-10.738 3.205-18.432 12.992-18.432 24.576s7.694 21.371 18.251 24.529l0.181 0.047h283.136c10.738-3.205 18.432-12.992 18.432-24.576s-7.694-21.371-18.251-24.529l-0.181-0.047zM881.152 579.072h-283.136c-10.738 3.205-18.432 12.992-18.432 24.576s7.694 21.371 18.251 24.529l0.181 0.047h283.136c10.738-3.205 18.432-12.992 18.432-24.576s-7.694-21.371-18.251-24.529l-0.181-0.047z" />
<glyph unicode="&#xe936;" glyph-name="my-message" d="M512 932.096c-267.264 0-484.096-188.928-484.096-421.632 1.522-117.953 54.611-223.209 137.709-294.468l0.531-0.444c51.2-45.568 345.856-251.648 345.856-251.648v125.696c267.264 0 484.096 188.672 484.096 421.632s-216.832 420.864-484.096 420.864zM272.64 445.696c-33.605 1.137-60.416 28.653-60.416 62.43 0 34.498 27.966 62.464 62.464 62.464 34.486 0 62.445-27.947 62.464-62.429v-0.002c-0.572-34.624-28.774-62.472-63.48-62.472-0.363 0-0.725 0.003-1.087 0.009l0.054-0.001zM513.792 445.696c-33.605 1.137-60.416 28.653-60.416 62.43 0 34.498 27.966 62.464 62.464 62.464 34.486 0 62.445-27.947 62.464-62.429v-0.002c-0.572-34.624-28.774-62.472-63.48-62.472-0.363 0-0.725 0.003-1.087 0.009l0.054-0.001zM756.736 445.696c-33.605 1.137-60.416 28.653-60.416 62.43 0 34.498 27.966 62.464 62.464 62.464 34.486 0 62.445-27.947 62.464-62.429v-0.002c-0.574-34.622-28.775-62.469-63.48-62.469-0.273 0-0.545 0.002-0.818 0.005h0.041z" />
<glyph unicode="&#xe937;" glyph-name="my-wallet" d="M800 345.6c0-23.046 18.682-41.728 41.728-41.728s41.728 18.682 41.728 41.728c0 23.046-18.682 41.728-41.728 41.728v0c-23.046 0-41.728-18.682-41.728-41.728v0zM829.696 765.184l-69.376 120.576c-9.602 16.42-27.148 27.275-47.229 27.275-10.040 0-19.445-2.713-27.524-7.446l0.257 0.139-242.944-140.544zM815.616 256.256c-47.935 2.629-85.809 42.139-85.809 90.496s37.874 87.867 85.577 90.486l0.232 0.010h161.28v218.88c0 0.002 0 0.004 0 0.005 0 30.115-24.413 54.528-54.528 54.528-0.27 0-0.54-0.002-0.809-0.006h-819.159c-30.115 0-54.528-24.413-54.528-54.528v-617.728c-0.006-0.305-0.010-0.664-0.010-1.024 0-30.115 24.413-54.528 54.528-54.528 0.003 0 0.007 0 0.010 0h819.199c0.308-0.006 0.67-0.010 1.034-0.010 30.115 0 54.528 24.413 54.528 54.528 0 0.364-0.004 0.726-0.011 1.088l0.001-0.054v217.856z" />
<glyph unicode="&#xe938;" glyph-name="my-home" d="M943.616 913.152h-863.232c-18.521 0-33.536-15.015-33.536-33.536v0-896l161.28 161.28 151.808-151.808 152.064 151.040 151.808-151.808 151.808 151.808 161.28-161.28v896c0.006 0.229 0.009 0.499 0.009 0.769 0 18.435-14.874 33.395-33.276 33.535h-0.013zM687.616 262.144l-175.616 90.88-176.384-90.88 33.792 192.512-142.848 136.448 197.12 28.16 88.32 175.104 88.32-175.104 197.12-28.16-142.848-136.448z" />
<glyph unicode="&#xe939;" glyph-name="my-area" d="M37.888-26.112h474.112v947.2h-474.112zM334.336 803.584h118.528v-118.528h-118.528zM334.336 566.528h118.528v-118.528h-118.528zM334.336 329.472h118.528v-118.528h-118.528zM97.28 803.584h118.528v-118.528h-118.528zM97.28 566.528h118.528v-118.528h-118.528zM97.28 329.472h118.528v-118.528h-118.528zM571.136 625.664h414.72v-59.136h-414.72zM571.136-26.112h118.528v237.056h177.664v-237.056h118.528v533.248h-414.72z" />
<glyph unicode="&#xe93a;" d="M1024 448c0-282.77-229.23-512-512-512s-512 229.23-512 512c0 282.77 229.23 512 512 512s512-229.23 512-512z" />
<glyph unicode="&#xe93b;" d="M1024 448c0-282.77-229.23-512-512-512s-512 229.23-512 512c0 282.77 229.23 512 512 512s512-229.23 512-512z" />
<glyph unicode="&#xe93c;" d="M1024 448c0-282.77-229.23-512-512-512s-512 229.23-512 512c0 282.77 229.23 512 512 512s512-229.23 512-512z" />
<glyph unicode="&#xe93d;" d="M1024 448c0-282.77-229.23-512-512-512s-512 229.23-512 512c0 282.77 229.23 512 512 512s512-229.23 512-512z" />
<glyph unicode="&#xe93e;" d="M1024 448c0-282.77-229.23-512-512-512s-512 229.23-512 512c0 282.77 229.23 512 512 512s512-229.23 512-512z" />
<glyph unicode="&#xe93f;" glyph-name="edit2" d="M752.174-20.823h-600.883c-69.325 0-125.696 56.371-125.696 125.696v729.446c0 69.325 56.371 125.696 125.696 125.696h444.416c28.262 0 51.2-22.938 51.2-51.2 0-28.314-22.938-51.2-51.2-51.2h-444.416c-12.851 0-23.296-10.445-23.296-23.296v-729.446c0-12.851 10.445-23.296 23.296-23.296h600.883c12.8 0 23.245 10.445 23.245 23.296v298.957c0 28.262 22.938 51.2 51.2 51.2s51.2-22.938 51.2-51.2v-298.957c0-69.325-56.371-125.696-125.645-125.696zM491.151 291.779c-10.701 0-21.555 3.328-30.771 10.342-22.579 16.998-27.085 49.101-10.035 71.68l408.115 541.338c16.998 22.63 49.152 27.187 71.731 10.086 22.579-17.050 27.085-49.152 10.035-71.731l-408.166-541.338c-10.035-13.363-25.395-20.378-40.909-20.378z" />
<glyph unicode="&#xe940;" glyph-name="setgroup" d="M494.044 283.851c76.613 44.89 128.087 128.087 128.087 223.355 0 142.851-115.817 258.768-258.768 258.768s-258.668-115.817-258.668-258.768c0-95.267 51.474-178.464 128.087-223.355-134.372-43.693-231.535-169.985-231.535-318.921v-28.929h724.431v28.929c0 148.936-97.163 275.228-231.634 318.921zM791.119 414.033c76.613 44.89 128.087 128.087 128.087 223.355 0 142.851-115.817 258.768-258.768 258.768-75.615 0-143.749-32.521-191.034-84.194 6.584-2.294 13.068-4.788 19.552-7.482 38.406-16.26 72.922-39.504 102.55-69.131s52.871-64.143 69.131-102.55c16.859-39.803 25.338-82.1 25.338-125.593 0-57.26-15.263-113.623-44.092-162.803-9.477-16.26-20.35-31.523-32.521-45.788 5.088-3.292 10.075-6.783 14.963-10.375 33.418-24.241 62.747-53.27 87.187-86.489 24.839-33.618 44.092-70.628 57.26-110.031 2.793-8.479 5.387-16.959 7.581-25.538h246.398v28.929c0 149.036-97.163 275.228-231.634 318.921z" />
<glyph unicode="&#xe941;" glyph-name="plus" d="M977.455 401.455h-418.909v-418.909c0-25.693-20.829-46.545-46.545-46.545s-46.545 20.852-46.545 46.545v418.909h-418.909c-25.693 0-46.545 20.852-46.545 46.545 0 25.716 20.852 46.545 46.545 46.545h418.909v418.909c0 25.716 20.829 46.545 46.545 46.545s46.545-20.829 46.545-46.545v-418.909h418.909c25.716 0 46.545-20.829 46.545-46.545 0-25.693-20.829-46.545-46.545-46.545z" />
<glyph unicode="&#xe942;" glyph-name="delete" d="M938.903 413.043h-852.411c-14.129 0-25.583 11.453-25.583 25.583s11.454 25.583 25.583 25.583h852.411c14.129 0 25.583-11.454 25.583-25.583 0-14.13-11.454-25.583-25.583-25.583z" />
<glyph unicode="&#xe943;" d="M1024 448c0-282.77-229.23-512-512-512s-512 229.23-512 512c0 282.77 229.23 512 512 512s512-229.23 512-512z" />
<glyph unicode="&#xe944;" glyph-name="have-pay" d="M512.906 450.296h2.136c-0.716-0.702-1.429-1.409-2.136-2.119v2.119zM589.835 483.779h-36.091l45.668 49.046c4.839 5.317 4.839 13.735 0 19.103l-8.872 9.63c-4.788 5.293-14.263 5.293-19.054 0.048l-57.566-61.824-57.565 61.776c-4.839 5.341-14.216 5.241-19.054 0l-8.773-9.555c-4.838-5.317-4.838-13.685 0-19.055l45.824-49.171h-36.244c-7.609 0-13.812-6.227-13.812-13.863v-13.761c0-7.636 6.201-13.862 13.812-13.862h55.094v-13.66h-55.094c-7.609 0-13.812-6.226-13.812-13.862v-13.762c0-7.636 6.201-13.913 13.812-13.913h55.094v-41.26c0-7.66 6.202-13.835 13.866-13.835h13.811c7.66 0 13.862 6.175 13.862 13.835v41.26h55.095c7.612 0 13.814 6.277 13.814 13.913v13.762c0 7.636-6.201 13.862-13.814 13.862h-55.095v13.66h55.095c7.612 0 13.814 6.226 13.814 13.862v13.761c0.001 7.638-6.2 13.864-13.813 13.864zM513.974 898.957c-248.374 0-449.721-201.347-449.721-449.721s201.347-449.721 449.721-449.721 449.721 201.347 449.721 449.721-201.347 449.721-449.721 449.721zM769.089 283.811c0-26.64-21.676-48.34-48.294-48.34h-413.645c-26.615 0-48.291 21.7-48.291 48.34v82.694c0 6.73 1.715 23.464 17.845 33.547l1.51 0.704c16.635 5.645 35.789 16.205 35.789 48.442 0 28.379-26.111 43.604-37.351 48.897-16.483 8.872-17.794 20.088-17.794 33.875v82.718c0 26.667 21.676 48.315 48.291 48.315h413.644c26.618 0 48.294-21.649 48.294-48.315v-82.719c0-13.786-1.111-22.936-16.837-33.369-29.79-15.98-38.312-26.993-38.311-49.4 0-22.329 9.174-34.276 37.604-48.896 12.603-9.324 17.545-15.928 17.545-33.799v-82.694z" />
<glyph unicode="&#xe945;" glyph-name="return-right" d="M254.362-47.462v0c5.823-6.054 13.992-9.815 23.040-9.815s17.217 3.761 23.030 9.805l462.448 462.448c23.142 23.142 19.814 46.080 3.328 62.771l-465.92 465.92c-5.823 6.054-13.992 9.815-23.040 9.815s-17.217-3.761-23.030-9.805l-0.010-0.010c-6.054-5.823-9.815-13.992-9.815-23.040s3.761-17.217 9.805-23.030l0.010-0.010 436.019-432.742c6.605-9.933 6.605-23.142 0-29.747l-435.866-439.654c-6.069-5.206-9.89-12.883-9.89-21.453s3.821-16.247 9.853-21.421l0.038-0.032z" />
<glyph unicode="&#xe946;" glyph-name="home" d="M404.512 18.048v286.624h214.976v-286.624h218.56v429.952h139.744l-465.792 429.952-465.792-429.952h139.744v-429.952z" />
<glyph unicode="&#xe947;" glyph-name="contacts" horiz-adv-x="1025" d="M204.807 102.38v25.601c0 7.068-5.732 12.8-12.8 12.8h-179.207c-7.071 0-12.8-5.732-12.8-12.8v-25.601c0-7.068 5.73-12.8 12.8-12.8h179.207c7.069 0 12.8 5.732 12.8 12.8zM12.8 755.205h179.207c7.068 0 12.8 5.73 12.8 12.8v25.601c0 7.068-5.732 12.8-12.8 12.8h-179.207c-7.071 0-12.8-5.732-12.8-12.8v-25.601c0-7.072 5.73-12.8 12.8-12.8zM12.8 422.392h179.207c7.068 0 12.8 5.73 12.8 12.8v25.601c0 7.068-5.732 12.8-12.8 12.8h-179.207c-7.071 0-12.8-5.732-12.8-12.8v-25.601c0-7.072 5.73-12.8 12.8-12.8zM972.838 960.012h-819.232c-28.279 0-51.202-22.925-51.202-51.202v-51.202h128.006c14.14 0 25.601-11.464 25.601-25.601v-102.404c0-14.14-11.462-25.601-25.601-25.601h-128.006v-179.207h128.006c14.14 0 25.601-11.462 25.601-25.601v-102.404c0-14.14-11.462-25.601-25.601-25.601h-128.006v-179.207h128.006c14.14 0 25.601-11.462 25.601-25.601v-102.404c0-14.14-11.462-25.601-25.601-25.601h-128.006v-51.202c0-28.279 22.923-51.202 51.202-51.202h819.232c28.279 0 51.202 22.923 51.202 51.202v921.633c-0.001 28.277-22.924 51.202-51.202 51.202zM803.61 283.489c-6.16-5.11-18.773-12.486-20.195-13.304l-2.414-1.397h-358.751l-2.414 1.397c-1.418 0.819-14.050 8.195-20.21 13.315-10.148 8.421-15.611 20.251-15.368 33.302l0.046 3.499c0.064 7.012 0.136 14.27 2.095 21.669 4.601 17.422 17.519 28.716 30.36 38.804 16.806 13.215 36.668 24.429 64.392 36.349 13.205 5.676 27.314 11.122 43.145 16.615 6.784 2.356 13.869 9.736 18.049 18.781 3.305 7.153 4.285 14.288 2.686 19.305l-0.773 0.911c-18.827 22.836-33.796 43.097-40.884 78.264-5.702 28.253-4.883 54.945 2.427 79.338 11.206 37.395 35.393 61.706 69.945 70.308 5.215 1.3 10.283 2.215 15.307 2.752v0.576l21.147 0.031v-0.606c5.018-0.537 10.097-1.451 15.317-2.757 34.546-8.597 58.729-32.908 69.94-70.303 7.298-24.388 8.119-51.075 2.432-79.33-7.109-35.178-22.073-55.444-40.895-78.272l-0.688-0.809c-0.031-0.031-0.049-0.061-0.069-0.092-1.606-5.069-0.624-12.181 2.675-19.316 4.18-9.055 11.26-16.425 18.044-18.773 15.785-5.494 29.892-10.927 43.15-16.622 27.718-11.92 47.569-23.132 64.392-36.349 12.271-9.641 25.749-21.382 30.355-38.819 1.949-7.365 2.020-14.608 2.092-21.612l0.049-3.54c0.239-13.052-5.224-24.883-15.382-33.312z" />
<glyph unicode="&#xe948;" glyph-name="my" d="M532.48 857.6c105.813 0 213.333-90.453 213.333-155.307v-141.653c0-59.733-29.013-167.253-92.16-216.747-10.24-8.533-17.067-22.187-15.36-37.547 1.707-13.653 10.24-25.6 23.893-32.427l247.467-116.053c11.947-5.12 27.307-15.36 32.427-22.187v-81.92c0-8.533-6.827-15.36-15.36-15.36h-788.48c-8.533 0-15.36 6.827-15.36 15.36v81.92c5.12 6.827 18.773 17.067 32.427 22.187l247.467 116.053c11.947 6.827 22.187 18.773 23.893 32.427s-3.413 27.307-15.36 37.547c-63.147 51.2-92.16 157.013-92.16 216.747v141.653c0 64.853 107.52 155.307 213.333 155.307z" />
<glyph unicode="&#xe949;" glyph-name="message" d="M513.4 862.8c-220.5 0-399.2-156.4-399.2-349.3 0-110.3 58.5-208.4 149.7-272.5v-176.7l174.9 106.1c24.2-4 49.1-6.3 74.6-6.3 220.5 0 399.2 156.4 399.2 349.3 0.1 193-178.7 349.4-399.2 349.4zM638.2 388.7h-249.5c-13.8 0-25 11.2-25 25s11.2 25 25 25h249.5c13.8 0 25-11.2 25-25s-11.2-25-25-25zM688.1 538.5h-349.3c-13.8 0-25 11.2-25 25s11.2 25 25 25h349.3c13.8 0 25-11.2 25-25 0-13.9-11.2-25-25-25z" />
<glyph unicode="&#xe94a;" glyph-name="tele" d="M511.999 898.099c-248.583 0-450.099-201.517-450.099-450.099s201.517-450.099 450.099-450.099c248.584 0 450.099 201.517 450.099 450.099s-201.516 450.099-450.099 450.099zM690.308 207.317c-152.622-48.822-462.257 223.703-431.882 406.942 0 0 31.531 85.863 106.666 79.341 0 0 19.41 7.358 29.549-21.468l40.513-115.188-54.709-57.615s50.418-131.029 184.557-173.939l48.284 50.825 130.695-26.837s22.89-5.529 23.275-34.732c-0.001 0 10.579-67.791-76.948-107.328z" />
<glyph unicode="&#xe94b;" glyph-name="return-boldleft" d="M798.085 886.671l-479.686-438.213 479.686-438.213c16.791-16.684 16.791-43.768 0-60.467-16.715-16.73-43.905-16.73-60.62 0l-510.547 466.259c-8.916 8.916-12.739 20.768-12.158 32.421-0.581 11.653 3.242 23.474 12.158 32.421l510.547 466.259c16.715 16.73 43.905 16.73 60.62 0 16.791-16.684 16.791-43.783 0-60.467v0z" />
<glyph unicode="&#xe94c;" glyph-name="return-thinleft" d="M769.652-4.542l-436.026 439.329c-6.606 6.606-6.606 19.819 0 29.729l436.026 432.723c13.213 13.213 13.213 33.032 0 46.245s-33.032 13.213-46.245 0l-465.755-465.755c-16.516-16.516-19.819-39.639 3.303-62.761l462.452-462.452c13.213-13.213 33.032-13.213 46.245 0v0c13.213 9.91 13.213 33.032 0 42.942z" />
<glyph unicode="&#xe94d;" glyph-name="return-bolderleft" d="M732.16 117.76l-330.24 330.24 330.24 330.24c17.92 17.92 15.36 48.64-2.56 69.12s-51.2 20.48-69.12 2.56l-368.64-368.64c-7.68-7.68-12.8-20.48-12.8-30.72v-5.12c0-10.24 5.12-23.040 12.8-30.72l368.64-368.64c17.92-17.92 48.64-15.36 69.12 2.56 20.48 20.48 20.48 51.2 2.56 69.12z" />
<glyph unicode="&#xe94e;" glyph-name="payed" d="M512 960c-284.444 0-512-227.556-512-512s227.556-512 512-512 512 227.556 512 512-227.556 512-512 512zM688.356 521.956c17.067 0 28.444-5.689 28.444-22.756s-11.378-22.756-28.444-22.756h-159.289v-45.511h164.978c17.067 0 28.444-5.689 28.444-22.756s-11.378-22.756-28.444-22.756h-164.978v-182.044c0-17.067-11.378-34.133-28.444-34.133s-28.444 17.067-28.444 34.133v187.733h-159.289c-17.067 0-28.444 5.689-28.444 22.756s11.378 22.756 28.444 22.756h159.289v45.511h-159.289c-17.067-5.689-28.444 0-28.444 17.067s11.378 22.756 28.444 22.756h108.089l-125.156 153.6c-11.378 11.378-11.378 39.822 0 45.511 11.378 11.378 28.444 11.378 39.822 0l164.978-199.111 170.667 204.8c11.378 5.689 28.444 5.689 39.822 0 11.378-11.378 11.378-34.133 0-45.511l-125.156-159.289h102.4z" />
<glyph unicode="&#xe94f;" glyph-name="close" d="M714.104 632.448l-9.664 9.664c-2.672 2.664-6.992 2.664-9.664 0l-178.776-178.784-178.784 178.776c-2.672 2.664-6.992 2.664-9.664 0l-9.664-9.664c-2.672-2.672-2.672-6.992 0-9.664l178.784-178.776-178.776-178.784c-2.672-2.664-2.672-6.992 0-9.664l9.664-9.664c2.672-2.672 6.992-2.672 9.664 0l178.776 178.784 178.784-178.784c2.672-2.672 6.992-2.672 9.664 0l9.664 9.664c2.672 2.672 2.672 6.992 0 9.664l-178.784 178.784 178.784 178.776c2.664 2.672 2.664 7-0.008 9.672zM516 936c-271.728 0-492-220.272-492-492s220.272-492 492-492 492 220.272 492 492-220.272 492-492 492zM516-24.848c-258.936 0-468.848 209.912-468.848 468.848s209.912 468.848 468.848 468.848 468.848-209.912 468.848-468.848-209.912-468.848-468.848-468.848z" />
<glyph unicode="&#xe950;" glyph-name="delay" d="M515.069 940.21c-272.402 0-493.234-220.832-493.234-493.234s220.832-493.234 493.234-493.234 493.234 220.832 493.234 493.234-220.831 493.234-493.234 493.234zM778.128 364.77c0-9.087-7.385-16.44-16.44-16.44h-328.822c-9.072 0-16.441 7.355-16.441 16.44v295.941c0 9.088 7.37 16.441 16.441 16.441h32.882c9.072 0 16.44-7.353 16.44-16.441v-246.617h279.499c9.056 0 16.44-7.355 16.44-16.441v-32.883z" />
<glyph unicode="&#xe951;" glyph-name="calendar" d="M392.339 832.84h244.531v-47.996h-244.531v47.996zM792.62 832.84h64.318c33.508 0 63.413-13.579 85.153-35.322 21.742-21.742 35.299-51.623 35.299-85.107v-622.232c0-33.508-13.557-63.413-35.299-85.13-21.764-21.764-51.645-35.322-85.153-35.322h-690.133c-32.601 0-62.504 13.557-84.224 35.322-21.742 21.742-35.346 51.623-35.346 85.13v622.232c0 33.484 13.603 63.364 35.346 85.107s51.623 35.322 84.224 35.322h67.015v-47.996h-67.015c-19.021 0-37.135-8.138-50.715-20.811-12.674-13.579-20.835-31.692-20.835-51.623v-622.232c0-19.906 8.161-38.043 20.835-50.715 13.579-13.603 31.692-21.764 50.715-21.764h690.133c19.927 0 38.043 8.161 50.739 21.764 13.579 12.674 21.742 30.788 21.742 50.715v622.232c0 19.906-8.161 38.019-20.835 51.623h-0.907c-12.696 12.649-30.788 20.811-50.739 20.811h-64.318v47.996zM713.861 919.807c27.161 0 49.809-22.649 49.809-50.715v-129.543c0-27.137-22.649-49.809-49.809-49.809-28.090 0-50.762 22.695-50.762 49.809v129.522c0 28.066 22.671 50.739 50.762 50.739zM663.099 265.882h125.893v-103.222h-125.893v103.222zM234.727 566.568h124.987v-103.244h-124.987v103.244zM462.076 567.475h125.893v-102.336h-125.893v102.336zM663.099 567.475h125.893v-102.336h-125.893v102.336zM664.007 417.143h125.893v-103.222h-125.893v103.222zM462.959 417.143h125.916v-103.222h-125.916v103.222zM235.635 415.33h125.893v-102.314h-125.893v102.314zM234.727 264.973h124.987v-103.222h-124.987v103.222zM462.076 265.882h125.893v-103.222h-125.893v103.222zM310.813 919.807c28.066 0 50.715-22.649 50.715-50.715v-129.543c0-27.137-22.649-49.809-50.715-49.809-27.161 0-49.809 22.695-49.809 49.809v129.522c0 28.066 22.649 50.739 49.809 50.739z" />
<glyph unicode="&#xe952;" glyph-name="doctor" d="M512-64c-282.77 0-512 229.23-512 512s229.23 512 512 512 512-229.23 512-512-229.23-512-512-512zM701.376 168.113c20.652-0.062 31.776 14.672 32.87 37.837 0 89.135-58.29 136.026-140.443 152.835-21.34 0.574-49.631-147.513-75.63-161.408v-29.377c79.666 0.009 135.451 0.26 183.203 0.113zM630.36 465.879c8.559 3.677 19.42 12.119 23.396 34.909 5.025 28.83-13.020 35.73-13.020 35.73-1.558 0.083-3.182-1.395-4.81-3.926-2.922 8.766-8.314 17.276-14.042 22.751-32.577 31.136-64.598 34.076-110.393 33.875-50.537-0.22-92.402-12.165-115.156-34.531-6.012-5.918-10.955-12.95-13.694-20.94-1.331 1.786-2.656 2.803-3.939 2.736 0 0-17.832-6.92-12.87-35.829 3.798-22.091 13.972-30.75 22.296-34.631 18.061-60.451 65.477-103.602 121.134-103.602 55.616 0 103.004 43.080 121.098 103.458zM374.211 569.94s38.95 44.533 133.73 44.533c94.217 0 133.744-44.668 133.744-44.668v121.708s-68.842 36.487-137.299 36.487c-70.967 0-130.175-36.487-130.175-36.487v-121.574zM545.088 661.89h-29.353v-29.298h-15.593v29.297h-29.219v15.881h29.219v29.322h15.593v-29.322h29.353v-15.88zM505.077 197.378c-26.013 13.896-54.287 161.982-75.636 161.41-82.149-16.812-140.441-63.7-140.441-152.838 1.090-23.165 12.223-37.899 32.867-37.837 47.755 0.146 103.54-0.104 183.21-0.113v29.377z" />
<glyph unicode="&#xe953;" glyph-name="search" d="M689.979 765.703c-136.879 136.878-358.805 136.878-495.683-0.001-136.878-136.878-136.878-358.802 0-495.681 124.758-124.757 320.155-135.782 457.426-33.12l203.079-203.078c8.244-8.244 21.733-8.244 29.977 0l41.401 41.401c8.245 8.245 8.245 21.732 0 29.977l-203.078 203.079c102.661 137.269 91.637 332.666-33.121 457.424zM640.41 319.589c-109.503-109.503-287.043-109.503-396.547 0.001-109.503 109.502-109.503 287.041 0 396.544s287.045 109.504 396.548 0.001 109.503-287.045-0.001-396.547z" />
<glyph unicode="&#xe954;" glyph-name="picture" d="M511.999 898.099c-248.583 0-450.099-201.517-450.099-450.099s201.517-450.099 450.099-450.099c248.584 0 450.099 201.517 450.099 450.099s-201.516 450.099-450.099 450.099zM804.908 238.78h-585.816v418.441h585.817v-418.441zM584.537 368.959l94.839 79.044 83.685-139.492v306.867h-502.129v-334.751l251.068 209.218 72.537-120.886zM365.545 448.003c-34.672 0-62.769 28.094-62.769 62.764 0 34.669 28.097 62.768 62.769 62.768s62.763-28.099 62.763-62.768c0-34.671-28.098-62.764-62.763-62.764z" />
<glyph unicode="&#xe955;" d="M781.184 488.512h56.448v-52.288h-56.448v52.288z" />
<glyph unicode="&#xe956;" d="M966.976 620.352h-701.696c-8.357 7.722-15.429 16.671-20.97 26.593l-0.278 0.543h-129.536c-18.496-35.2-60.928-61.12-111.808-66.688v-109.888l0.576-0.384c5.135-105.637 77.059-193.17 174.22-221.586l1.716-0.43c17.942 5.034 33.515 11.404 48.146 19.297l-1.234-0.609h740.864c30.009 0 54.336 24.327 54.336 54.336v0 244.48c0 30.009-24.327 54.336-54.336 54.336v0zM587.584 529.536c11.010-8.479 20.746-17.545 29.576-27.438l0.184-0.21-8.768-9.088c-8.965 10.546-18.58 19.979-28.98 28.486l-0.396 0.314zM404.8 531.2c9.536-8.192 22.144-19.84 28.608-26.688l-8.96-9.152c-6.4 7.232-19.2 19.2-28.224 28.032zM407.104 369.664c-1.937 3.592-4.282 6.671-7.030 9.335l-0.010 0.009c5.875 3.818 9.826 10.17 10.301 17.469l0.003 0.067v66.432h-32.768v12.224h44.8v-79.168l24.576 16.384c0.96-3.264 2.688-8 3.648-10.304-35.904-25.344-41.024-28.992-43.52-32.576zM541.952 361.472c-27.84 18.496-41.024 52.288-48.256 79.36-5.888-32.64-18.496-60.864-44.416-79.744-2.778 3.393-5.984 6.294-9.569 8.669l-0.159 0.099c47.872 33.344 46.848 100.16 47.488 164.992h12.8c0-20.032 0-40.064-1.536-59.52 3.072-18.304 12.224-78.976 53.184-104.704-3.634-2.686-6.773-5.743-9.456-9.174l-0.080-0.106zM594.048 366.976c-2.434 3.262-5.061 6.132-7.945 8.72l-0.055 0.048c5.984 4.453 9.962 11.313 10.492 19.12l0.004 0.080v68.032h-27.456v12.224h39.68v-80.32l19.84 14.72c1.616-4.285 3.296-7.87 5.21-11.306l-0.218 0.426c-32-24.448-36.864-28.224-39.552-31.872zM741.248 368.896h-115.2v11.712h16.768v92.288h12.416v-92.288h27.072v127.168h-49.728v12.032h104.32v-12.032h-41.984v-50.752h38.4v-12.032h-38.4v-64.384h46.144zM920.448 412.736h-12.8v10.944h-56.64v-62.144h-13.184v62.144h-56.448v-12.032h-12.8v89.28h69.056v34.112h13.184v-34.112h69.632z" />
<glyph unicode="&#xe957;" d="M331.136 487.872c0.006-0.616 0.009-1.344 0.009-2.073 0-98.511-62.695-182.378-150.361-213.878l-1.585-0.497c-89.183 32.033-151.818 115.867-151.818 214.33 0 0.745 0.004 1.488 0.011 2.231l-0.001-0.113v70.4c41.693 11.561 76.934 34.816 103.036 65.985l0.26 0.319h97.216c26.339-31.488 61.559-54.743 101.798-65.963l1.434-0.341z" />
<glyph unicode="&#xe958;" d="M121.472 448c0-10.604-8.596-19.2-19.2-19.2s-19.2 8.596-19.2 19.2c0 10.604 8.596 19.2 19.2 19.2s19.2-8.596 19.2-19.2z" />
<glyph unicode="&#xe959;" d="M198.464 448c0-10.604-8.596-19.2-19.2-19.2s-19.2 8.596-19.2 19.2c0 10.604 8.596 19.2 19.2 19.2s19.2-8.596 19.2-19.2z" />
<glyph unicode="&#xe95a;" d="M275.456 448c0-10.604-8.596-19.2-19.2-19.2s-19.2 8.596-19.2 19.2c0 10.604 8.596 19.2 19.2 19.2s19.2-8.596 19.2-19.2z" />
<glyph unicode="&#xe95b;" d="M331.136 487.872c0.006-0.616 0.009-1.344 0.009-2.073 0-98.511-62.695-182.378-150.361-213.878l-1.585-0.497c-89.183 32.033-151.818 115.867-151.818 214.33 0 0.745 0.004 1.488 0.011 2.231l-0.001-0.113v70.4c41.693 11.561 76.934 34.816 103.036 65.985l0.26 0.319h97.216c26.339-31.488 61.559-54.743 101.798-65.963l1.434-0.341z" />
<glyph unicode="&#xe95c;" d="M198.464 356.672c0-10.604-8.596-19.2-19.2-19.2s-19.2 8.596-19.2 19.2c0 10.604 8.596 19.2 19.2 19.2s19.2-8.596 19.2-19.2z" />
<glyph unicode="&#xe95d;" d="M177.664 558.528h3.2c7.953 0 14.4-6.447 14.4-14.4v-137.6c0-7.953-6.447-14.4-14.4-14.4h-3.2c-7.953 0-14.4 6.447-14.4 14.4v137.6c0 7.953 6.447 14.4 14.4 14.4z" />
<glyph unicode="&#xe95e;" d="M396.337 150.552c-0.030 0-0.064 0-0.099 0-9.852 0-18.768 4.008-25.206 10.482l-0.002 0.002-242.249 242.493c-6.611 6.498-10.708 15.536-10.708 25.531 0 19.767 16.024 35.791 35.791 35.791 9.971 0 18.989-4.077 25.479-10.655l217.043-216.994 448.317 448.268c6.472 6.466 15.411 10.465 25.283 10.465 19.757 0 35.773-16.016 35.773-35.773 0-9.884-4.009-18.833-10.49-25.307v0l-473.624-473.624c-6.451-6.549-15.398-10.623-25.297-10.679h-0.011z" />
<glyph unicode="&#xe95f;" d="M510.755 449.245h2.491l-2.491-2.352v2.352z" />
<glyph unicode="&#xe960;" d="M500.93 394.171c47.558 28.175 78.945 79.228 78.945 137.613 0 88.041-71.371 159.412-159.412 159.412s-159.412-71.371-159.412-159.412c0-58.384 31.387-109.438 78.208-137.208l0.737-0.405c-83.423-27.814-142.505-105.184-142.53-196.356v-17.854h446.132v17.851c-0.045 91.208-59.187 168.591-141.209 195.937l-1.459 0.422z" />
<glyph unicode="&#xe961;" d="M683.866 474.43c47.631 28.158 79.075 79.251 79.075 137.689 0 88.041-71.371 159.412-159.412 159.412-46.617 0-88.561-20.010-117.71-51.909l-0.111-0.123c4.013-1.384 8.026-2.906 12.039-4.566 71.956-30.949 121.426-101.23 121.426-183.066 0-36.979-10.101-71.599-27.695-101.251l0.504 0.918c-6.3-10.453-12.923-19.499-20.261-27.905l0.196 0.229c3.183-2.076 6.227-4.151 9.271-6.365 40.936-29.931 71.918-71.279 88.459-119.347l0.519-1.734c1.661-5.258 3.321-10.378 4.705-15.775h152.216v17.297c-0.064 91.397-59.466 168.902-141.762 196.080l-1.46 0.417z" />
<glyph unicode="&#xe962;" d="M510.755 449.107h2.491l-2.491-2.352z" />
<glyph unicode="&#xe963;" d="M725.795 469.449h-427.589c-0.516 0.044-1.116 0.069-1.721 0.069-11.846 0-21.449-9.603-21.449-21.449s9.603-21.449 21.449-21.449c0.606 0 1.206 0.025 1.799 0.074l-0.078-0.005h427.589c0.516-0.044 1.116-0.069 1.721-0.069 11.846 0 21.449 9.603 21.449 21.449s-9.603 21.449-21.449 21.449c-0.606 0-1.206-0.025-1.799-0.074l0.078 0.005z" />
<glyph unicode="&#xe964;" d="M510.755 449.107h2.491l-2.491-2.352z" />
<glyph unicode="&#xe965;" d="M725.795 426.551h-192.346v-192.346c0.044-0.516 0.069-1.116 0.069-1.721 0-11.846-9.603-21.449-21.449-21.449s-21.449 9.603-21.449 21.449c0 0.606 0.025 1.206 0.074 1.799l-0.005-0.078v192.346h-192.484c-0.516-0.044-1.116-0.069-1.721-0.069-11.846 0-21.449 9.603-21.449 21.449s9.603 21.449 21.449 21.449c0.606 0 1.206-0.025 1.799-0.074l-0.078 0.005h192.346v192.484c-0.044 0.516-0.069 1.116-0.069 1.721 0 11.846 9.603 21.449 21.449 21.449s21.449-9.603 21.449-21.449c0-0.606-0.025-1.206-0.074-1.799l0.005 0.078v-192.346h192.484c0.516 0.044 1.116 0.069 1.721 0.069 11.846 0 21.449-9.603 21.449-21.449s-9.603-21.449-21.449-21.449c-0.606 0-1.206 0.025-1.799 0.074l0.078-0.005z" />
<glyph unicode="&#xe966;" d="M570.949 378.811c30.11 24.336 53.56 55.746 67.962 91.752l0.535 1.515c49.678 50.37 14.945 83.027 6.227 90.223 0.628 7.005 0.986 15.154 0.986 23.386s-0.358 16.381-1.060 24.431l0.073-1.045c1.107 135.888-90.776 145.574-90.776 145.574-12.254 3.127-26.487 5.212-41.106 5.799l-0.407 0.013c-0.481 0.005-1.049 0.007-1.617 0.007-15.152 0-29.856-1.921-43.881-5.532l1.217 0.266s-89.669-16.605-91.33-145.021c-0.628-7.005-0.986-15.154-0.986-23.386s0.358-16.381 1.060-24.431l-0.073 1.045c-8.856-7.057-43.451-39.853 6.227-90.223 15.761-36.513 37.743-67.541 64.9-93.138l0.138-0.129c2.504-7.185 3.95-15.467 3.95-24.086 0-9.491-1.753-18.573-4.954-26.939l0.174 0.517s-110.703-22.279-223.204-131.875v-62.547h574.547v61.994c-111.81 109.596-227.771 131.875-227.771 131.875-2.965 7.775-4.682 16.767-4.682 26.16 0 8.512 1.41 16.694 4.009 24.326l-0.157-0.531z" />
<glyph unicode="&#xe967;" d="M739.356 411.191v60.333h-21.587v-60.333h-60.333v-21.587h60.333v-60.333h21.587v60.333h60.333v21.587z" />
<glyph unicode="&#xe968;" d="M244.099 576.692c5.885 0 10.655 4.77 10.655 10.655v0 117.898h117.898c5.923 0 10.724 4.801 10.724 10.724s-4.801 10.724-10.724 10.724v0h-128.554c-5.885 0-10.655-4.77-10.655-10.655v0-128.554c-0.001-0.041-0.001-0.090-0.001-0.138 0-5.885 4.77-10.655 10.655-10.655 0 0 0.001 0 0.001 0v0z" />
<glyph unicode="&#xe969;" d="M372.653 190.755h-117.76v117.898c0 5.923-4.801 10.724-10.724 10.724s-10.724-4.801-10.724-10.724v0-128.554c0-5.885 4.77-10.655 10.655-10.655v0h128.554c5.923 0 10.724 4.801 10.724 10.724s-4.801 10.724-10.724 10.724v0z" />
<glyph unicode="&#xe96a;" d="M779.901 726.694h-130.629c-5.923 0-10.724-4.801-10.724-10.724s4.801-10.724 10.724-10.724v0h119.974v-117.898c0-5.923 4.801-10.724 10.724-10.724s10.724 4.801 10.724 10.724v0 128.554c0.001 0.041 0.001 0.090 0.001 0.139 0 5.885-4.77 10.655-10.655 10.655-0.049 0-0.098 0-0.147-0.001h0.007z" />
<glyph unicode="&#xe96b;" d="M779.901 319.446c-5.885 0-10.655-4.77-10.655-10.655v0-117.898h-119.974c-5.923 0-10.724-4.801-10.724-10.724s4.801-10.724 10.724-10.724v0h130.629c5.885 0 10.655 4.77 10.655 10.655v0 128.692c0 5.885-4.77 10.655-10.655 10.655v0z" />
<glyph unicode="&#xe96c;" d="M779.901 458.794h-535.801c-5.923 0-10.724-4.801-10.724-10.724s4.801-10.724 10.724-10.724v0h535.801c5.923 0 10.724 4.801 10.724 10.724s-4.801 10.724-10.724 10.724v0z" />
<glyph unicode="&#xe96d;" d="M396.337 150.552c-0.030 0-0.064 0-0.099 0-9.852 0-18.768 4.008-25.206 10.482l-0.002 0.002-242.249 242.493c-6.611 6.498-10.708 15.536-10.708 25.531 0 19.767 16.024 35.791 35.791 35.791 9.971 0 18.989-4.077 25.479-10.655l217.043-216.994 448.317 448.268c6.472 6.466 15.411 10.465 25.283 10.465 19.757 0 35.773-16.016 35.773-35.773 0-9.884-4.009-18.833-10.49-25.307v0l-473.624-473.624c-6.451-6.549-15.398-10.623-25.297-10.679h-0.011z" />
</font>
</defs>
</svg>
